<svg width="24" height="24" viewBox="0 0 24 24" fill="none" xmlns="http://www.w3.org/2000/svg">
<path d="M4.98725 11.3858C4.98728 11.2518 5.01376 11.1192 5.06518 10.9955C5.11661 10.8718 5.19195 10.7595 5.2869 10.665C5.38185 10.5705 5.49453 10.4957 5.61847 10.4449C5.7424 10.3941 5.87516 10.3682 6.00911 10.3689L7.70324 10.3744C7.97337 10.3744 8.23242 10.4817 8.42343 10.6727C8.61443 10.8637 8.72174 11.1228 8.72174 11.3929V17.7993C8.91255 17.7427 9.15674 17.6824 9.42545 17.6192C9.61162 17.5754 9.77754 17.47 9.89629 17.3201C10.0151 17.1701 10.0797 16.9845 10.0797 16.7933V8.84715C10.0797 8.57701 10.187 8.31793 10.378 8.1269C10.569 7.93586 10.8281 7.82851 11.0982 7.82846H12.7975C13.0677 7.82851 13.3267 7.93586 13.5177 8.1269C13.7087 8.31793 13.816 8.57701 13.816 8.84715V16.2224C13.816 16.2224 14.2411 16.0504 14.655 15.8756C14.8087 15.8106 14.94 15.7017 15.0323 15.5625C15.1246 15.4234 15.1739 15.2602 15.174 15.0932V6.30081C15.174 6.03072 15.2813 5.7717 15.4722 5.5807C15.6632 5.3897 15.9222 5.28237 16.1923 5.28231H17.8898C18.1598 5.28258 18.4186 5.39 18.6093 5.58098C18.8001 5.77195 18.9073 6.03086 18.9073 6.30081V13.541C20.379 12.4745 21.8705 11.1916 23.0541 9.64914C23.2258 9.42524 23.3394 9.16232 23.3848 8.88382C23.4302 8.60533 23.406 8.31993 23.3143 8.05308C22.7664 6.47681 21.8955 5.03228 20.7573 3.81192C19.6191 2.59156 18.2386 1.62224 16.7043 0.965987C15.17 0.309739 13.5156 -0.0189873 11.8469 0.000846963C10.1783 0.0206812 8.53216 0.388638 7.01387 1.08117C5.49559 1.7737 4.13859 2.77556 3.02972 4.02264C1.92084 5.26971 1.08452 6.73453 0.574248 8.32338C0.0639805 9.91222 -0.108988 11.5901 0.066411 13.2496C0.24181 14.9091 0.761713 16.5138 1.59285 17.9608C1.73765 18.2105 1.95069 18.4136 2.20694 18.5463C2.46318 18.6791 2.75199 18.7359 3.03943 18.7102C3.36054 18.682 3.76035 18.642 4.23568 18.5863C4.44256 18.5627 4.63356 18.4639 4.7723 18.3087C4.91103 18.1534 4.98782 17.9525 4.98804 17.7443V11.3858" fill="#999999"/>
<path d="M4.95117 21.6599C6.74046 22.9616 8.85496 23.7429 11.0607 23.9174C13.2665 24.0919 15.4776 23.6529 17.4493 22.6488C19.421 21.6447 21.0765 20.1147 22.2327 18.2281C23.3888 16.3415 24.0005 14.1718 24.0001 11.9592C24.0001 11.6823 23.9872 11.4099 23.9689 11.1382C19.5866 17.6741 11.4952 20.7296 4.95117 21.6599Z" fill="#999999"/>
</svg>
