<svg width="240" height="64" viewBox="0 0 240 64" fill="none" xmlns="http://www.w3.org/2000/svg">
<path fill-rule="evenodd" clip-rule="evenodd" d="M51.4713 16.3793L35.1877 7L19.2082 16.3793H12L15.5172 22.4585V41.1303L31.8008 50.4662L35.2312 56.3717L38.705 50.4662L54.8583 41.1303V22.4585L58.3755 16.3793H51.4713ZM30.6284 11.9589C28.1186 13.4092 25.4003 14.9724 24.5753 15.4414C23.7503 15.9104 23.0816 16.3099 23.0729 16.3359C23.0729 16.362 24.749 16.3706 26.7899 16.3533L30.5155 16.3359L32.843 14.9898C34.1196 14.2516 35.2052 13.6437 35.2486 13.6437C35.292 13.6437 36.3516 14.2429 37.6021 14.9637L39.8775 16.2925L43.6379 16.3359C45.6961 16.362 47.3896 16.362 47.3896 16.3359C47.3896 16.3099 46.9641 16.058 46.4517 15.7627C45.9393 15.4761 43.2384 13.9216 40.442 12.3063C37.6456 10.6909 35.3268 9.35353 35.2747 9.34484C35.2313 9.32748 33.1383 10.4999 30.6284 11.9589ZM18.4296 23.462L18.4272 23.4579L18.4231 23.4507L18.4229 23.4505L18.4182 23.4422C16.8912 20.7969 15.8199 18.9409 15.6303 18.6113L15.4132 18.2465H21.2231H27.0244L27.3371 18.7936C27.4204 18.9428 28.0042 19.9534 28.8739 21.4588L28.8751 21.4608L28.8757 21.4619L28.8769 21.4639L28.8781 21.466L28.8794 21.4683C29.7312 22.9427 30.8559 24.8896 32.0528 26.9658C34.4758 31.1604 36.4819 34.6516 36.5079 34.7124C36.5427 34.8166 35.9869 34.834 33.1123 34.8514L29.6732 34.8774L33.6247 41.7209L37.5761 48.5643L36.4211 50.553C35.5613 52.0468 35.2487 52.5158 35.1792 52.4376C35.1271 52.3768 32.5825 47.9911 29.5256 42.6935C26.2449 37.0013 21.4575 28.7075 18.4371 23.475L18.4338 23.4693L18.4296 23.462ZM29.5863 30.7957C29.5863 30.7262 25.0096 22.7885 24.7925 22.4759C24.7515 22.4176 24.7207 22.3739 24.6809 22.341C24.5605 22.2414 24.3578 22.2414 23.5419 22.2414C22.9427 22.2414 22.465 22.2762 22.465 22.3196C22.465 22.363 23.5593 24.291 24.888 26.6011L27.311 30.7957L28.4487 30.8217C29.074 30.8304 29.5863 30.8217 29.5863 30.7957ZM29.6646 18.4028C29.9164 18.8805 35.1706 27.9385 35.214 27.9906C35.2661 28.034 40.746 18.646 40.8589 18.3247C40.8763 18.2812 38.6618 18.2465 35.2314 18.2465C29.8643 18.2465 29.5864 18.2552 29.6646 18.4028ZM42.4584 18.9755L42.5436 18.8284L42.8823 18.2465H45.175C46.443 18.2465 47.4764 18.2639 47.4764 18.2726C47.4764 18.3073 44.4803 23.5094 44.1589 24.0391L43.9852 24.3257H45.4529H46.9119L48.6575 21.3035L50.4031 18.2899L52.7132 18.2639C53.9898 18.2552 55.032 18.2639 55.032 18.2813C55.032 18.3073 53.1561 21.5814 50.8547 25.5589C48.5533 29.5364 45.6787 34.5214 44.4629 36.6317C43.2384 38.7507 42.2223 40.479 42.1875 40.479C42.066 40.4703 39.9035 36.5622 39.9556 36.432C40.0077 36.3017 44.2718 28.8764 44.5063 28.5117L44.6279 28.3206H43.1689H41.7012L40.1033 31.1083C39.2261 32.6368 38.4792 33.9048 38.4445 33.9221C38.4184 33.9395 37.8713 33.0624 37.246 31.9681L36.0997 29.988L36.6902 28.9546C36.8511 28.6795 37.2594 27.9733 37.7926 27.0512L37.7951 27.0469L37.7956 27.046C38.356 26.0768 39.0539 24.8699 39.7472 23.6744C40.9616 21.5589 42.1054 19.5848 42.4578 18.9765L42.4584 18.9755L42.4584 18.9755ZM17.5148 32.9147V39.9405L22.2305 42.6588C23.3865 43.326 24.5736 44.0105 25.6016 44.6033L25.6071 44.6064L25.6091 44.6076C26.8791 45.3399 27.905 45.9314 28.327 46.176C29.0913 46.6189 29.7253 46.9663 29.7426 46.9576C29.7513 46.9403 28.9436 45.4986 27.9362 43.753L26.1038 40.5745L23.6982 39.185L21.2926 37.8041L21.2491 34.9469L21.2057 32.0984L19.4254 28.998C18.444 27.2958 17.619 25.8976 17.5843 25.8889C17.5408 25.8889 17.5148 29.0501 17.5148 32.9147ZM52.1847 27.0783C52.5762 26.4008 52.8331 25.9562 52.8522 25.9323C52.8782 25.8802 52.913 29.0067 52.9303 32.8713C52.939 36.7446 52.9217 39.9318 52.8869 39.9666C52.8174 40.0274 50.1426 41.5732 43.7421 45.2555C42.8765 45.7541 42.0848 46.2095 41.534 46.5262C41.068 46.7942 40.7745 46.9631 40.7546 46.975C40.7112 47.0011 40.798 46.81 40.9457 46.5495C41.0094 46.4369 41.2028 46.1025 41.4719 45.637C41.8258 45.0248 42.3108 44.186 42.8042 43.3275L44.3934 40.5832L46.7817 39.2023L49.1699 37.8215L49.196 35.0251L49.2134 32.2286L51.0024 29.1196C51.4493 28.3512 51.8626 27.6359 52.1847 27.0783Z" fill="#F4F4F4"/>
<path d="M72.9507 34.4941H76.51C80.4337 34.4941 83.0401 31.9157 83.0401 28.3003C83.0401 24.713 80.4337 22.1066 76.51 22.1066H69.0831V41.9771H72.9507V34.4941ZM76.0336 31.159H72.9787V25.4697H76.0336C77.9674 25.4697 79.1445 26.5627 79.1445 28.3283C79.1445 30.0379 77.9674 31.159 76.0336 31.159ZM98.5249 41.9771H102.421V22.1066H98.5249V30.094H89.8649V22.1066H85.9973V41.9771H89.8649V33.7374H98.5249V41.9771ZM126.498 22.1066L121.313 36.8763L116.129 22.1066H111.897L119.24 41.9771H123.219L130.59 22.1066H126.498ZM143.4 38.0254L140.289 37.1005C139.841 38.3337 138.888 39.2025 137.15 39.2025C135.3 39.2025 133.759 37.8852 133.675 36.0635H143.54C143.54 36.0075 143.596 35.447 143.596 34.9145C143.596 30.4864 141.046 27.7678 136.786 27.7678C133.255 27.7678 130.004 30.6265 130.004 35.0266C130.004 39.6789 133.339 42.3974 137.122 42.3974C140.513 42.3974 142.699 40.4076 143.4 38.0254ZM139.925 33.5132H133.759C133.843 32.252 134.908 30.7946 136.842 30.7946C138.972 30.7946 139.869 32.1399 139.925 33.5132ZM150.259 41.9771V34.0457C150.259 32.4482 151.212 31.187 152.837 31.187C154.631 31.187 155.388 32.3921 155.388 33.9336V41.9771H159.115V33.289C159.115 30.2621 157.546 27.8239 154.127 27.8239C152.641 27.8239 150.988 28.4685 150.147 29.8978V28.1882H146.531V41.9771H150.259ZM167.495 28.1882V24.0684H164.131V26.0022C164.131 27.2353 163.459 28.1882 162.001 28.1882H161.301V31.4953H163.795V37.9133C163.795 40.5757 165.477 42.1732 168.167 42.1732C169.26 42.1732 169.933 41.9771 170.269 41.8369V38.7541C170.073 38.8101 169.568 38.8662 169.12 38.8662C168.055 38.8662 167.495 38.4738 167.495 37.2687V31.4953H170.269V28.1882H167.495ZM182.542 41.9771H186.101C186.045 41.5006 185.961 40.5477 185.961 39.4827V28.1882H182.234V36.2037C182.234 37.8012 181.281 38.9222 179.627 38.9222C177.89 38.9222 177.105 37.6891 177.105 36.1476V28.1882H173.377V36.9043C173.377 39.9031 175.283 42.3414 178.618 42.3414C180.076 42.3414 181.673 41.7809 182.43 40.4917C182.43 41.0522 182.486 41.6968 182.542 41.9771ZM198.347 31.8877V28.1322C198.067 28.1041 197.786 28.0761 197.478 28.0761C196.301 28.0761 194.395 28.4124 193.554 30.2341V28.1882H189.939V41.9771H193.667V35.6712C193.667 32.7004 195.32 31.7756 197.226 31.7756C197.562 31.7756 197.926 31.8036 198.347 31.8877ZM213.192 38.0254L210.081 37.1005C209.632 38.3337 208.679 39.2025 206.942 39.2025C205.092 39.2025 203.551 37.8852 203.466 36.0635H213.332C213.332 36.0075 213.388 35.447 213.388 34.9145C213.388 30.4864 210.837 27.7678 206.577 27.7678C203.046 27.7678 199.795 30.6265 199.795 35.0266C199.795 39.6789 203.13 42.3974 206.914 42.3974C210.305 42.3974 212.491 40.4076 213.192 38.0254ZM209.716 33.5132H203.551C203.635 32.252 204.7 30.7946 206.633 30.7946C208.763 30.7946 209.66 32.1399 209.716 33.5132ZM218.341 37.4368L215.146 38.1375C215.314 39.7069 216.743 42.3974 220.891 42.3974C224.507 42.3974 226.244 40.0993 226.244 37.8572C226.244 35.8393 224.871 34.1858 222.152 33.6253L220.191 33.2049C219.434 33.0648 218.929 32.6444 218.929 31.9717C218.929 31.187 219.714 30.5985 220.695 30.5985C222.265 30.5985 222.853 31.6354 222.965 32.4482L226.076 31.7475C225.908 30.2621 224.591 27.7678 220.667 27.7678C217.696 27.7678 215.51 29.8137 215.51 32.28C215.51 34.2138 216.715 35.8113 219.378 36.3999L221.2 36.8202C222.265 37.0445 222.685 37.5489 222.685 38.1655C222.685 38.8942 222.096 39.5388 220.863 39.5388C219.238 39.5388 218.425 38.5298 218.341 37.4368Z" fill="#F4F4F4"/>
</svg>
