<svg width="240" height="64" viewBox="0 0 240 64" fill="none" xmlns="http://www.w3.org/2000/svg">
<path d="M51.3914 41.5934C50.8739 41.5934 50.5081 41.4863 50.2939 41.2723C50.0977 41.0581 49.9995 40.719 49.9995 40.255V24.757C49.9995 24.293 50.1065 23.954 50.3207 23.7398C50.5349 23.5078 50.8917 23.3918 51.3914 23.3918H57.9493C60.4475 23.3918 62.2855 23.9183 63.4634 24.9711C64.6411 26.0239 65.2299 27.5943 65.2299 29.6821C65.2299 31.7521 64.6411 33.3134 63.4634 34.3663C62.3034 35.4014 60.4654 35.9188 57.9493 35.9188H55.4064V40.255C55.4064 40.719 55.2994 41.0581 55.0852 41.2723C54.8711 41.4863 54.5052 41.5934 53.9878 41.5934H51.3914ZM57.5211 32.0376C58.2527 32.0376 58.8149 31.8413 59.2074 31.4487C59.6177 31.0561 59.823 30.4673 59.823 29.6821C59.823 28.8791 59.6177 28.2813 59.2074 27.8887C58.8149 27.4961 58.2527 27.2998 57.5211 27.2998H55.4064V32.0376H57.5211Z" fill="#F4F4F4"/>
<path d="M71.5514 41.9949C69.8741 41.9949 68.5269 41.4595 67.5096 40.389C66.5103 39.3004 66.0107 37.7747 66.0107 35.8117C66.0107 34.3128 66.3498 33.0011 67.0278 31.877C67.7238 30.7528 68.6964 29.8873 69.9455 29.2806C71.2125 28.656 72.6668 28.3438 74.3084 28.3438C75.6647 28.3438 76.8603 28.4954 77.8953 28.7988C78.9481 29.0843 79.9116 29.5037 80.7861 30.0568V40.7637C80.7861 41.1027 80.7237 41.3258 80.5986 41.4328C80.4738 41.54 80.224 41.5934 79.8493 41.5934H77.119C76.9227 41.5934 76.7711 41.5667 76.6641 41.513C76.5569 41.4418 76.4678 41.3346 76.3964 41.1918L76.0483 40.389C75.5308 40.9421 74.9063 41.3437 74.1747 41.5934C73.4609 41.8611 72.5865 41.9949 71.5514 41.9949ZM73.5591 38.3545C74.2549 38.3545 74.7992 38.185 75.1917 37.8461C75.5843 37.507 75.7806 37.0252 75.7806 36.4005V32.225C75.4417 32.0644 75.0133 31.9841 74.4959 31.9841C73.5501 31.9841 72.7917 32.3142 72.2207 32.9744C71.6674 33.6346 71.3909 34.5626 71.3909 35.7582C71.3909 37.4892 72.1135 38.3545 73.5591 38.3545Z" fill="#F4F4F4"/>
<path d="M84.5112 41.5934C83.9935 41.5934 83.6277 41.4863 83.4137 41.2723C83.1995 41.0581 83.0925 40.719 83.0925 40.2551V29.575C83.0925 29.2538 83.146 29.0397 83.253 28.9326C83.3779 28.8077 83.6277 28.7453 84.0026 28.7453H86.7596C86.9736 28.7453 87.1343 28.7809 87.2413 28.8523C87.3662 28.9059 87.4376 29.0129 87.4555 29.1735L87.5892 29.9765C88.089 29.4769 88.7404 29.0843 89.5432 28.7988C90.3642 28.4954 91.2742 28.3438 92.2735 28.3438C93.7189 28.3438 94.8878 28.7542 95.7799 29.575C96.6723 30.378 97.1183 31.5736 97.1183 33.1618V40.2551C97.1183 40.719 97.0113 41.0581 96.7971 41.2723C96.6009 41.4863 96.2439 41.5934 95.7264 41.5934H93.1301C92.6126 41.5934 92.2379 41.4863 92.0058 41.2723C91.7917 41.0581 91.6847 40.719 91.6847 40.2551V33.5097C91.6847 32.9744 91.5686 32.5908 91.3367 32.3588C91.1047 32.1268 90.7388 32.0108 90.2393 32.0108C89.7039 32.0108 89.2756 32.1536 88.9544 32.439C88.6511 32.7246 88.4994 33.1172 88.4994 33.6169V40.2551C88.4994 40.719 88.3923 41.0581 88.1783 41.2723C87.982 41.4863 87.625 41.5934 87.1075 41.5934H84.5112Z" fill="#F4F4F4"/>
<path d="M106.58 41.9949C104.081 41.9949 102.154 41.4149 100.798 40.2551C99.4418 39.0952 98.7637 37.4089 98.7637 35.1961C98.7637 33.84 99.076 32.6444 99.7005 31.6093C100.325 30.5743 101.226 29.7713 102.404 29.2003C103.6 28.6293 105.009 28.3438 106.633 28.3438C107.864 28.3438 108.9 28.4597 109.738 28.6917C110.595 28.9237 111.353 29.2806 112.013 29.7624C112.21 29.8873 112.308 30.0479 112.308 30.2442C112.308 30.387 112.236 30.5743 112.094 30.8063L110.996 32.7067C110.871 32.9567 110.72 33.0816 110.541 33.0816C110.434 33.0816 110.264 33.0102 110.033 32.8674C109.551 32.5641 109.096 32.341 108.667 32.1982C108.257 32.0554 107.74 31.9841 107.115 31.9841C106.223 31.9841 105.5 32.2696 104.947 32.8406C104.412 33.4116 104.144 34.1968 104.144 35.1961C104.144 36.2133 104.42 36.9984 104.974 37.5515C105.527 38.0869 106.285 38.3545 107.249 38.3545C107.82 38.3545 108.337 38.2743 108.801 38.1136C109.265 37.9531 109.738 37.7301 110.22 37.4445C110.47 37.3017 110.648 37.2303 110.755 37.2303C110.916 37.2303 111.059 37.3552 111.184 37.6052L112.388 39.6662C112.477 39.8446 112.522 39.9874 112.522 40.0944C112.522 40.2551 112.415 40.4067 112.201 40.5495C111.451 41.0313 110.63 41.3881 109.738 41.6202C108.864 41.87 107.811 41.9949 106.58 41.9949Z" fill="#F4F4F4"/>
<path d="M119.308 41.9949C117.631 41.9949 116.284 41.4595 115.267 40.389C114.267 39.3004 113.768 37.7747 113.768 35.8117C113.768 34.3128 114.107 33.0011 114.785 31.877C115.481 30.7528 116.453 29.8873 117.702 29.2806C118.969 28.656 120.424 28.3438 122.065 28.3438C123.422 28.3438 124.617 28.4954 125.652 28.7988C126.705 29.0843 127.669 29.5037 128.543 30.0568V40.7637C128.543 41.1027 128.481 41.3258 128.356 41.4328C128.231 41.54 127.981 41.5934 127.606 41.5934H124.876C124.68 41.5934 124.528 41.5667 124.421 41.513C124.314 41.4418 124.225 41.3346 124.153 41.1918L123.805 40.389C123.288 40.9421 122.663 41.3437 121.932 41.5934C121.218 41.8611 120.343 41.9949 119.308 41.9949ZM121.316 38.3545C122.012 38.3545 122.556 38.185 122.949 37.8461C123.341 37.507 123.538 37.0252 123.538 36.4005V32.225C123.199 32.0644 122.77 31.9841 122.253 31.9841C121.307 31.9841 120.549 32.3142 119.978 32.9744C119.424 33.6346 119.148 34.5626 119.148 35.7582C119.148 37.4892 119.871 38.3545 121.316 38.3545Z" fill="#F4F4F4"/>
<path d="M145.357 40.5762C145.482 40.719 145.544 40.8797 145.544 41.0581C145.544 41.2186 145.491 41.3525 145.384 41.4595C145.277 41.5488 145.134 41.5934 144.956 41.5934H140.807C140.557 41.5934 140.369 41.5755 140.245 41.5399C140.138 41.4863 140.022 41.3881 139.897 41.2455L136.256 36.2935V40.255C136.256 40.719 136.149 41.0581 135.935 41.2723C135.721 41.4863 135.355 41.5934 134.838 41.5934H132.241C131.724 41.5934 131.358 41.4863 131.144 41.2723C130.948 41.0581 130.849 40.719 130.849 40.255V24.757C130.849 24.293 130.956 23.954 131.171 23.7398C131.385 23.5078 131.742 23.3918 132.241 23.3918H134.838C135.355 23.3918 135.721 23.5078 135.935 23.7398C136.149 23.954 136.256 24.293 136.256 24.757V33.7239L139.79 29.12C139.897 28.9772 140.013 28.8791 140.138 28.8255C140.262 28.772 140.45 28.7453 140.7 28.7453H144.849C145.027 28.7453 145.161 28.7988 145.25 28.9058C145.357 28.9951 145.411 29.12 145.411 29.2806C145.411 29.459 145.348 29.6196 145.223 29.7624L140.646 35.0088L145.357 40.5762Z" fill="#F4F4F4"/>
<path d="M154.048 41.9949C152.549 41.9949 151.211 41.7451 150.033 41.2455C148.874 40.7458 147.954 39.9962 147.276 38.9971C146.598 37.9978 146.259 36.7754 146.259 35.33C146.259 33.0637 146.902 31.3327 148.187 30.1371C149.471 28.9416 151.318 28.3438 153.727 28.3438C156.083 28.3438 157.867 28.9326 159.081 30.1104C160.312 31.2703 160.928 32.8853 160.928 34.9551C160.928 35.8475 160.535 36.2935 159.75 36.2935H151.345C151.345 37.0608 151.63 37.6498 152.202 38.0601C152.79 38.4706 153.674 38.6757 154.851 38.6757C155.583 38.6757 156.19 38.6134 156.672 38.4885C157.171 38.3457 157.671 38.1405 158.171 37.8729C158.385 37.7836 158.528 37.7389 158.599 37.7389C158.759 37.7389 158.893 37.8461 159 38.0601L159.91 39.7732C160 39.9518 160.044 40.0855 160.044 40.1748C160.044 40.3353 159.937 40.4871 159.723 40.6297C158.991 41.1116 158.162 41.4595 157.234 41.6737C156.306 41.8879 155.244 41.9949 154.048 41.9949ZM156.11 33.6437C156.11 32.9655 155.913 32.439 155.521 32.0644C155.128 31.6896 154.539 31.5023 153.754 31.5023C152.969 31.5023 152.371 31.6985 151.961 32.0911C151.55 32.466 151.345 32.9834 151.345 33.6437H156.11Z" fill="#F4F4F4"/>
<path d="M170.102 41.995C168.603 41.995 167.184 41.8434 165.846 41.5401C164.508 41.2187 163.428 40.7726 162.607 40.2017C162.304 40.0054 162.152 39.8001 162.152 39.5861C162.152 39.4433 162.206 39.2916 162.313 39.131L163.624 37.0432C163.767 36.829 163.91 36.722 164.053 36.722C164.142 36.722 164.294 36.7844 164.508 36.9093C165.168 37.2841 165.917 37.5874 166.756 37.8193C167.595 38.0514 168.425 38.1674 169.246 38.1674C170.084 38.1674 170.7 38.0425 171.092 37.7926C171.503 37.5428 171.708 37.1413 171.708 36.5881C171.708 36.0527 171.485 35.6334 171.039 35.3301C170.611 35.0267 169.799 34.6431 168.603 34.1792C166.801 33.501 165.391 32.7426 164.374 31.9039C163.375 31.0473 162.875 29.8874 162.875 28.4242C162.875 26.6576 163.508 25.3103 164.775 24.3824C166.042 23.4544 167.729 22.9905 169.834 22.9905C171.298 22.9905 172.547 23.1243 173.582 23.392C174.635 23.6418 175.527 24.0344 176.258 24.5697C176.562 24.8017 176.714 25.0158 176.714 25.2121C176.714 25.3371 176.66 25.4798 176.553 25.6404L175.241 27.7282C175.081 27.9424 174.938 28.0494 174.813 28.0494C174.724 28.0494 174.572 27.987 174.358 27.8621C173.323 27.184 172.092 26.8449 170.664 26.8449C169.897 26.8449 169.308 26.9698 168.897 27.2197C168.487 27.4695 168.282 27.8799 168.282 28.4509C168.282 28.8435 168.389 29.1647 168.603 29.4146C168.817 29.6644 169.103 29.8874 169.46 30.0837C169.834 30.2622 170.405 30.4942 171.173 30.7797L171.681 30.967C173.002 31.4845 174.037 31.9842 174.786 32.4661C175.554 32.9299 176.133 33.5099 176.526 34.2059C176.919 34.8839 177.115 35.7404 177.115 36.7755C177.115 38.3637 176.517 39.6307 175.322 40.5764C174.144 41.5222 172.404 41.995 170.102 41.995Z" fill="#F4F4F4"/>
<path d="M182.802 41.5935C182.535 41.5935 182.33 41.5489 182.186 41.4596C182.044 41.3705 181.936 41.1919 181.865 40.9243L178.412 29.361C178.377 29.2539 178.359 29.1736 178.359 29.1201C178.359 28.8703 178.537 28.7454 178.894 28.7454H182.427C182.66 28.7454 182.828 28.79 182.936 28.8792C183.043 28.9506 183.115 29.0755 183.149 29.2539L184.595 35.3301L186.415 30.4317C186.505 30.2175 186.594 30.0748 186.683 30.0034C186.79 29.9142 186.969 29.8696 187.219 29.8696H188.904C189.154 29.8696 189.325 29.9142 189.413 30.0034C189.521 30.0748 189.618 30.2175 189.709 30.4317L191.501 35.3301L192.974 29.2539C193.026 29.0755 193.097 28.9506 193.188 28.8792C193.276 28.79 193.438 28.7454 193.669 28.7454H197.23C197.586 28.7454 197.765 28.8703 197.765 29.1201C197.765 29.1736 197.748 29.2539 197.711 29.361L194.232 40.9243C194.161 41.1919 194.053 41.3705 193.91 41.4596C193.785 41.5489 193.589 41.5935 193.322 41.5935H190.699C190.448 41.5935 190.261 41.5489 190.136 41.4596C190.011 41.3526 189.905 41.1742 189.814 40.9243L188.048 36.0795L186.281 40.9243C186.21 41.1742 186.102 41.3526 185.96 41.4596C185.835 41.5489 185.649 41.5935 185.399 41.5935H182.802Z" fill="#F4F4F4"/>
<path d="M204.55 41.9949C202.872 41.9949 201.526 41.4595 200.508 40.389C199.509 39.3004 199.009 37.7747 199.009 35.8117C199.009 34.3128 199.348 33.0011 200.027 31.877C200.722 30.7528 201.694 29.8873 202.943 29.2806C204.211 28.656 205.665 28.3438 207.307 28.3438C208.663 28.3438 209.858 28.4954 210.894 28.7988C211.946 29.0843 212.91 29.5037 213.784 30.0568V40.7637C213.784 41.1027 213.722 41.3258 213.597 41.4328C213.471 41.54 213.223 41.5934 212.848 41.5934H210.117C209.921 41.5934 209.77 41.5667 209.662 41.513C209.554 41.4418 209.466 41.3346 209.395 41.1918L209.047 40.389C208.53 40.9421 207.904 41.3437 207.173 41.5934C206.459 41.8611 205.585 41.9949 204.55 41.9949ZM206.558 38.3545C207.253 38.3545 207.798 38.185 208.191 37.8461C208.583 37.507 208.78 37.0252 208.78 36.4005V32.225C208.439 32.0644 208.012 31.9841 207.494 31.9841C206.548 31.9841 205.79 32.3142 205.219 32.9744C204.666 33.6346 204.388 34.5626 204.388 35.7582C204.388 37.4892 205.113 38.3545 206.558 38.3545Z" fill="#F4F4F4"/>
<path d="M217.482 47.0004C216.965 47.0004 216.6 46.8934 216.385 46.6792C216.188 46.465 216.091 46.1259 216.091 45.662V30.3245C216.894 29.7535 217.903 29.2806 219.115 28.9059C220.329 28.5311 221.596 28.3438 222.916 28.3438C228.306 28.3438 231 30.6279 231 35.1961C231 37.2661 230.429 38.9167 229.287 40.1481C228.144 41.3793 226.531 41.9949 224.443 41.9949C223.854 41.9949 223.282 41.9235 222.728 41.7807C222.193 41.6381 221.747 41.4418 221.391 41.1918V45.662C221.391 46.1259 221.283 46.465 221.069 46.6792C220.856 46.8934 220.489 47.0004 219.972 47.0004H217.482ZM223.291 38.3813C224.059 38.3813 224.63 38.0959 225.004 37.5248C225.396 36.9359 225.593 36.1508 225.593 35.1693C225.593 34.0095 225.362 33.1974 224.898 32.7335C224.451 32.2517 223.755 32.0108 222.81 32.0108C222.202 32.0108 221.721 32.0911 221.365 32.2517V36.5077C221.365 37.1145 221.533 37.5784 221.872 37.8996C222.212 38.2208 222.685 38.3813 223.291 38.3813Z" fill="#F4F4F4"/>
<path fill-rule="evenodd" clip-rule="evenodd" d="M13.4205 46.0928C16.2745 48.2784 20.3593 49.4952 25.4302 49.499H25.4556C30.5264 49.4952 34.6113 48.2784 37.4652 46.0928C40.3536 43.881 41.8857 40.7422 41.8857 37.1904C41.8857 33.7683 40.3569 31.3007 38.627 29.6326C37.2714 28.3255 35.7753 27.4883 34.7336 27.0067C34.9691 26.2838 35.263 25.3373 35.526 24.3598C35.8777 23.0517 36.2231 21.517 36.2231 20.3923C36.2231 19.0611 35.9328 17.7243 35.1503 16.6855C34.3234 15.5879 33.0788 15 31.5813 15C30.4111 15 29.4177 15.4341 28.6398 16.1829C27.8962 16.8988 27.4015 17.8493 27.0598 18.8403C26.4593 20.5816 26.2257 22.7692 26.16 24.9523H24.7257C24.6602 22.7692 24.4264 20.5816 23.826 18.8403C23.4844 17.8493 22.9895 16.8988 22.246 16.1829C21.4682 15.4341 20.4746 15 19.3044 15C17.807 15 16.5623 15.5879 15.7355 16.6855C14.953 17.7243 14.6628 19.0611 14.6628 20.3923C14.6628 21.517 15.0079 23.0517 15.3598 24.3598C15.6227 25.3373 15.9166 26.2838 16.1522 27.0067C15.1105 27.4883 13.6144 28.3255 12.2587 29.6326C10.5289 31.3007 9 33.7683 9 37.1904C9 40.7422 10.5322 43.881 13.4205 46.0928ZM21.486 35.4791C21.486 37.1672 20.6963 38.0463 19.7222 38.0463C18.748 38.0463 17.9584 37.1672 17.9584 35.4791C17.9584 33.7911 18.748 32.9119 19.7222 32.9119C20.6963 32.9119 21.486 33.7911 21.486 35.4791ZM31.1868 38.0463C32.1609 38.0463 32.9506 37.1672 32.9506 35.4791C32.9506 33.7911 32.1609 32.9119 31.1868 32.9119C30.2126 32.9119 29.423 33.7911 29.423 35.4791C29.423 37.1672 30.2126 38.0463 31.1868 38.0463Z" fill="#F4F4F4"/>
</svg>
