<svg width="96" height="32" viewBox="0 0 96 32" fill="none" xmlns="http://www.w3.org/2000/svg">
<path d="M22 10.1587H0.5H0V25.9047L11 32L22 25.9047V19.8095H17.5V22.8571L11 26.9206L4.5 22.8571V14.7301H17.5V18.2857H22V10.1587Z" fill="#FE84CF"/>
<path d="M6 5.07937L11 0L16 5.07937L12 9.14286H10L6 5.07937Z" fill="#CB539D"/>
<path d="M11 8.18698L3 1.01611V9.1431H19V1.01611L11 8.18698Z" fill="#FE84CF"/>
<path fill-rule="evenodd" clip-rule="evenodd" d="M11 32L22 25.9047V19.8095H17.5V22.8571L11 26.9206V32ZM11 14.7301H17.5V18.2857H22V10.1587H11V14.7301Z" fill="#CB539D"/>
<path d="M42.043 9.82071V5.74268L45.8211 7.83995V9.82071H42.043Z" fill="#F4F4F4"/>
<path d="M46.0573 11.0205H42.043V29.2517H46.0573V11.0205Z" fill="#F4F4F4"/>
<path d="M34.1324 4.06348H30V29.2513L35.3131 26.1476L40.39 29.2513V4.06348H36.4937V22.9245L35.3131 21.7308L34.1324 22.9245V4.06348Z" fill="#F4F4F4"/>
<path d="M47.9463 29.2517H51.7245V17.1376L54.9123 18.8167V29.2517H58.5724V16.8977L47.9463 11.0205V29.2517Z" fill="#F4F4F4"/>
<path fill-rule="evenodd" clip-rule="evenodd" d="M60.4615 4.06348H67.6637L70.9696 5.89737V27.4151L67.6637 29.249H60.4615V4.06348ZM64.2397 7.85372H66.0108L67.0734 8.34276V25.0924L66.0108 25.7036H64.2397V7.85372Z" fill="#F4F4F4"/>
<path fill-rule="evenodd" clip-rule="evenodd" d="M72.7406 4.06348H83.3667V29.2513H79.5885V18.6651L76.5188 16.9616V29.2513H72.7406V4.06348ZM76.5188 12.8245V7.83563H79.5886V14.6497L76.5188 12.8245Z" fill="#F4F4F4"/>
<path fill-rule="evenodd" clip-rule="evenodd" d="M85.2559 4.06348H96V29.2513H85.2559V4.06348ZM89.0341 7.73138H92.2219V25.583H89.0341V7.73138Z" fill="#F4F4F4"/>
</svg>
