<svg width="25" height="24" viewBox="0 0 25 24" fill="none" xmlns="http://www.w3.org/2000/svg">
<path d="M0.5 12C0.5 5.37258 5.87258 0 12.5 0C19.1274 0 24.5 5.37258 24.5 12C24.5 18.6274 19.1274 24 12.5 24C5.87258 24 0.5 18.6274 0.5 12Z" fill="#F4F4F4"/>
<path d="M9.2906 10.5831L12.3334 7.54062L15.3771 10.5843L17.1475 8.81416L12.3334 4L7.52044 8.81263L9.2906 10.5828V10.5831ZM4.5 11.8334L6.27046 10.0626L8.04062 11.8334L6.27016 13.6029L4.5 11.8334ZM9.2906 13.0833L12.3334 16.1255L15.3771 13.0818L17.1485 14.8511L12.3334 19.6667L7.52044 14.8535L7.51799 14.8508L9.2906 13.083V13.0833ZM16.6255 11.8334L18.3957 10.0632L20.1667 11.8334L18.3966 13.6035L16.6255 11.8334Z" fill="#221E2A"/>
<path d="M14.1283 11.8333L12.3334 10.0356L11.0054 11.363L10.8524 11.516L10.5381 11.8303L10.5357 11.8327L10.5381 11.8352L12.3334 13.6301L14.1295 11.834H14.128" fill="#221E2A"/>
</svg>
