<svg width="25" height="24" viewBox="0 0 25 24" fill="none" xmlns="http://www.w3.org/2000/svg">
<path d="M0.5 12C0.5 5.37258 5.87258 0 12.5 0C19.1274 0 24.5 5.37258 24.5 12C24.5 18.6274 19.1274 24 12.5 24C5.87258 24 0.5 18.6274 0.5 12Z" fill="#F4F4F4"/>
<path d="M12.3335 4L14.2743 5.98757L9.38722 10.8747L7.44641 8.93386L12.3335 4Z" fill="#221E2A"/>
<path d="M15.2798 6.94629L17.2206 8.93386L9.38722 16.7672L7.44641 14.8264L15.2798 6.94629Z" fill="#221E2A"/>
<path d="M6.44081 9.89258L8.38161 11.8802L6.44081 13.821L4.5 11.8802L6.44081 9.89258Z" fill="#221E2A"/>
<path d="M18.2259 9.89258L20.1667 11.8802L12.3333 19.7135L10.3925 17.7727L18.2259 9.89258Z" fill="#221E2A"/>
</svg>
