<svg width="32" height="32" viewBox="0 0 32 32" fill="none" xmlns="http://www.w3.org/2000/svg">
<path d="M24.1818 6H7.81818C6.81364 6 6 6.81364 6 7.81818V24.1818C6 25.1864 6.81364 26 7.81818 26H24.1818C25.1864 26 26 25.1864 26 24.1818V7.81818C26 6.81364 25.1864 6 24.1818 6ZM12.3218 22.3636H9.64V13.7345H12.3218V22.3636ZM10.9536 12.5009C10.0891 12.5009 9.39 11.8 9.39 10.9373C9.39 10.0745 10.09 9.37455 10.9536 9.37455C11.8155 9.37455 12.5164 10.0755 12.5164 10.9373C12.5164 11.8 11.8155 12.5009 10.9536 12.5009ZM22.3673 22.3636H19.6873V18.1673C19.6873 17.1664 19.6691 15.8791 18.2936 15.8791C16.8982 15.8791 16.6836 16.9691 16.6836 18.0945V22.3636H14.0036V13.7345H16.5764V14.9136H16.6127C16.9709 14.2355 17.8455 13.52 19.15 13.52C21.8655 13.52 22.3673 15.3073 22.3673 17.6309V22.3636Z" fill="#B8B8B8"/>
</svg>
