<svg width="65" height="64" viewBox="0 0 65 64" fill="none" xmlns="http://www.w3.org/2000/svg">
<path d="M32.9317 51.3337C43.6092 51.3337 52.2651 42.6778 52.2651 32.0003C52.2651 21.3228 43.6092 12.667 32.9317 12.667C22.2542 12.667 13.5984 21.3228 13.5984 32.0003C13.5984 42.6778 22.2542 51.3337 32.9317 51.3337Z" stroke="#F4F4F4" stroke-width="3.5" stroke-linecap="round" stroke-linejoin="round"/>
<path d="M38.9317 23.333H31.2651C28.8717 23.333 26.9317 25.2731 26.9317 27.6663C26.9317 30.0597 28.8717 31.9997 31.2651 31.9997H34.5984C36.9917 31.9997 38.9317 33.9397 38.9317 36.333C38.9317 38.7263 36.9917 40.6663 34.5984 40.6663H26.9317" stroke="#F4F4F4" stroke-width="3.5" stroke-linecap="round" stroke-linejoin="round"/>
<path d="M32.9317 20.667V22.0003" stroke="#F4F4F4" stroke-width="3.5" stroke-linecap="round" stroke-linejoin="round"/>
<path d="M32.9317 42V43.3333" stroke="#F4F4F4" stroke-width="3.5" stroke-linecap="round" stroke-linejoin="round"/>
</svg>
