<svg width="32" height="32" viewBox="0 0 32 32" fill="none" xmlns="http://www.w3.org/2000/svg">
<path fill-rule="evenodd" clip-rule="evenodd" d="M7.5 6C6.67157 6 6 6.67157 6 7.5V24.5C6 25.3284 6.67157 26 7.5 26H24.5C25.3284 26 26 25.3284 26 24.5V7.5C26 6.67157 25.3284 6 24.5 6H7.5ZM10 16.0939C10 12.7286 12.6865 10 16 10C19.3135 10 22 12.7286 22 16.0939C22 18.7529 20.3205 21.0077 17.9825 21.84C17.9844 21.8254 17.987 21.8115 17.9895 21.7976C17.9947 21.7686 18 21.7396 18 21.7039V20.3155C18 19.6995 17.5995 18.8819 17.0505 18.5909C19.0455 18.3812 19.9975 17.3722 19.9975 16.0025C19.9975 15.4135 19.7515 14.8442 19.3335 14.3643C19.473 13.8879 19.6485 12.9104 19.2825 12.5391C18.3815 12.5391 17.8375 13.1333 17.7085 13.2923C17.2595 13.1353 16.7655 13.047 16.2475 13.047C15.7305 13.047 15.2385 13.1353 14.7905 13.2912C14.66 13.1313 14.1165 12.5391 13.2175 12.5391C12.853 12.9099 13.0265 13.8834 13.1645 14.3607C12.744 14.8416 12.4965 15.4124 12.4965 16.0025C12.4965 17.3732 13.45 18.3827 15.448 18.5915C15.1015 18.7753 14.818 19.1648 14.654 19.5878C14.349 19.6366 14.025 19.6493 13.8085 19.6493C13.362 19.6493 13.2495 19.5771 13.0105 19.2587C12.7705 18.9408 12.5155 18.7265 12.208 18.6382C12.0415 18.6204 11.9315 18.7519 12.076 18.8672C12.4154 19.1086 12.5348 19.4568 12.6425 19.771C12.6893 19.9076 12.734 20.0378 12.7935 20.15C12.9705 20.4831 13.3355 20.6624 13.746 20.6624H14.5V21.7039C14.5 21.8223 14.518 21.9177 14.546 22C11.936 21.3388 10 18.9495 10 16.0939Z" fill="#B8B8B8"/>
</svg>
