<svg width="65" height="64" viewBox="0 0 65 64" fill="none" xmlns="http://www.w3.org/2000/svg">
<path d="M16.0205 51.333H35.8514C37.3568 51.333 38.5413 50.0842 38.2413 48.609C37.4133 44.5362 34.7085 37.333 25.936 37.333C17.1635 37.333 14.4588 44.5362 13.6306 48.609C13.3306 50.0842 14.5151 51.333 16.0205 51.333Z" stroke="#F4F4F4" stroke-width="3.5" stroke-linecap="round" stroke-linejoin="round"/>
<path d="M42.6026 37.333C48.1461 37.333 50.4165 43.0607 51.333 47.189C51.828 49.4183 50.0248 51.333 47.741 51.333H45.2693" stroke="#F4F4F4" stroke-width="3.5" stroke-linecap="round" stroke-linejoin="round"/>
<path d="M25.936 27.3337C29.9861 27.3337 33.2693 24.0504 33.2693 20.0003C33.2693 15.9502 29.9861 12.667 25.936 12.667C21.8859 12.667 18.6026 15.9502 18.6026 20.0003C18.6026 24.0504 21.8859 27.3337 25.936 27.3337Z" stroke="#F4F4F4" stroke-width="3.5" stroke-linecap="round" stroke-linejoin="round"/>
<path d="M39.936 27.3337C43.9861 27.3337 46.6026 24.0504 46.6026 20.0003C46.6026 15.9502 43.9861 12.667 39.936 12.667" stroke="#F4F4F4" stroke-width="3.5" stroke-linecap="round" stroke-linejoin="round"/>
</svg>
