<svg width="32" height="32" viewBox="0 0 32 32" fill="none" xmlns="http://www.w3.org/2000/svg">
<path fill-rule="evenodd" clip-rule="evenodd" d="M7.5 6C6.67157 6 6 6.67157 6 7.5V24.5C6 25.3284 6.67157 26 7.5 26H24.5C25.3284 26 26 25.3284 26 24.5V7.5C26 6.67157 25.3284 6 24.5 6H7.5ZM20.0956 11.0702C20.3727 10.9601 20.6406 10.9806 20.8112 11.1237C20.9335 11.2261 21.06 11.4344 20.969 11.844L19.4779 19.5113C19.4654 19.5432 19.3458 19.8252 19.0467 19.9467C18.9589 19.9822 18.867 20 18.7713 20C18.6473 20 18.5175 19.9703 18.3819 19.9109L18.3344 19.8828L16.3381 18.3426L15.1016 19.4773C14.9915 19.5628 14.8214 19.6224 14.6503 19.5572C14.4554 19.4985 14.3442 19.2132 14.276 18.996C14.175 18.6746 13.7458 17.2608 13.5748 16.6975C13.5605 16.6506 13.548 16.6095 13.5377 16.5755L11.5151 15.8904C11.4646 15.8721 11.0511 15.7142 11.0038 15.3328C10.9508 14.9098 11.4653 14.7199 11.5242 14.6997C11.8481 14.5617 19.8038 11.1858 20.0952 11.0702H20.0956ZM14.6392 18.6495L15.3215 16.8495L19.1879 12.5745L13.9569 16.3995L14.6392 18.6495Z" fill="#B8B8B8"/>
</svg>
