<svg width="32" height="32" viewBox="0 0 32 32" fill="none" xmlns="http://www.w3.org/2000/svg">
<path fill-rule="evenodd" clip-rule="evenodd" d="M7.5 6C6.67157 6 6 6.67157 6 7.5V24.5C6 25.3284 6.67157 26 7.5 26H24.5C25.3284 26 26 25.3284 26 24.5V7.5C26 6.67157 25.3284 6 24.5 6H7.5ZM21.4681 12.5812C22.0075 12.5202 22.5215 12.3848 23 12.1837C22.6425 12.6896 22.19 13.134 21.6686 13.4904C21.6736 13.5988 21.6761 13.7077 21.6761 13.817C21.6761 17.1532 18.9942 21 14.0883 21C12.5819 21 11.1805 20.5821 10 19.866C10.209 19.8897 10.4215 19.9015 10.6365 19.9015C11.8864 19.9015 13.0364 19.4978 13.9488 18.8205C12.7819 18.8002 11.7969 18.0699 11.4574 17.067C11.6199 17.0959 11.7874 17.112 11.9589 17.112C12.2024 17.112 12.4384 17.0812 12.6619 17.0235C11.4414 16.792 10.5225 15.7716 10.5225 14.5482V14.5165C10.882 14.7053 11.2935 14.8189 11.7304 14.8322C11.015 14.3797 10.5445 13.6068 10.5445 12.7313C10.5445 12.2679 10.676 11.8344 10.905 11.4615C12.2209 12.9892 14.1858 13.9945 16.4023 14.0995C16.3573 13.9154 16.3333 13.7223 16.3333 13.5245C16.3333 12.1307 17.5272 11 19.0002 11C19.7671 11 20.4601 11.3067 20.9466 11.7975C21.5546 11.6839 22.1255 11.4738 22.6405 11.1846C22.4415 11.7743 22.019 12.2689 21.4681 12.5812Z" fill="#B8B8B8"/>
</svg>
