<svg width="65" height="64" viewBox="0 0 65 64" fill="none" xmlns="http://www.w3.org/2000/svg">
<path d="M52.1455 17.9997C52.1455 16.5269 50.9516 15.333 49.4788 15.333H16.1455C14.6727 15.333 13.4788 16.5269 13.4788 17.9997V21.4548C13.4788 22.6914 14.3544 23.728 15.4529 24.2959C18.2402 25.7366 20.1455 28.6455 20.1455 31.9997C20.1455 35.3538 18.2402 38.2626 15.4529 39.7034C14.3544 40.2714 13.4788 41.3079 13.4788 42.5445V45.9997C13.4788 47.4725 14.6727 48.6663 16.1455 48.6663H49.4788C50.9516 48.6663 52.1455 47.4725 52.1455 45.9997V42.5445C52.1455 41.3079 51.2698 40.2714 50.1714 39.7034C47.3842 38.2626 45.4788 35.3538 45.4788 31.9997C45.4788 28.6455 47.3842 25.7366 50.1714 24.2959C51.2698 23.728 52.1455 22.6914 52.1455 21.4548V17.9997Z" stroke="#F4F4F4" stroke-width="3.5" stroke-linecap="round" stroke-linejoin="round"/>
</svg>
