<svg width="25" height="24" viewBox="0 0 25 24" fill="none" xmlns="http://www.w3.org/2000/svg">
<circle cx="12.5" cy="12" r="8.25" stroke="#999999" stroke-width="1.5"/>
<path d="M11.84 13.48H13.04C13.028 13.408 13.028 13.348 13.028 13.324C13.028 12.856 13.232 12.46 13.628 12.184L14.144 11.824C14.84 11.332 15.344 10.66 15.344 9.712C15.344 8.488 14.384 7.312 12.608 7.312C10.796 7.312 9.896 8.62 9.896 9.82C9.896 10.012 9.92 10.204 9.968 10.372L11.324 10.468C11.276 10.336 11.252 10.108 11.252 9.928C11.252 9.244 11.72 8.56 12.608 8.56C13.484 8.56 13.904 9.148 13.904 9.772C13.904 10.18 13.736 10.528 13.34 10.816L12.788 11.212C12.092 11.716 11.816 12.304 11.816 13.024C11.816 13.192 11.828 13.324 11.84 13.48ZM11.576 15.208C11.576 15.688 11.96 16.084 12.452 16.084C12.932 16.084 13.328 15.688 13.328 15.208C13.328 14.728 12.932 14.32 12.452 14.32C11.96 14.32 11.576 14.728 11.576 15.208Z" fill="#999999"/>
</svg>
