<svg width="32" height="32" viewBox="0 0 32 32" fill="none" xmlns="http://www.w3.org/2000/svg">
<path fill-rule="evenodd" clip-rule="evenodd" d="M7.5 6C6.67157 6 6 6.67157 6 7.5V24.5C6 25.3284 6.67157 26 7.5 26H24.5C25.3284 26 26 25.3284 26 24.5V7.5C26 6.67157 25.3284 6 24.5 6H7.5ZM21.5311 13.55C22.341 13.55 23 14.1401 23 14.8654C23 15.5376 22.434 16.0932 21.7065 16.1712L21.2564 21H10.7437L10.2936 16.1712C9.56605 16.0932 9 15.5376 9 14.8654C9 14.1401 9.65895 13.55 10.469 13.55C11.2789 13.55 11.9379 14.1401 11.9379 14.8654C11.9379 15.1951 11.8015 15.4965 11.577 15.7275L13.0742 16.9553L14.997 13.3386L13.9155 12.2011L16.008 10L18.1004 12.201L16.9685 13.3916L18.9052 16.9757L20.4237 15.7282C20.1989 15.4971 20.0622 15.1954 20.0622 14.8654C20.0622 14.1401 20.7211 13.55 21.5311 13.55Z" fill="#B8B8B8"/>
</svg>
