<svg width="32" height="32" viewBox="0 0 32 32" fill="none" xmlns="http://www.w3.org/2000/svg">
<path fill-rule="evenodd" clip-rule="evenodd" d="M7.5 6C6.67157 6 6 6.67157 6 7.5V24.5C6 25.3284 6.67157 26 7.5 26H24.5C25.3284 26 26 25.3284 26 24.5V7.5C26 6.67157 25.3284 6 24.5 6H7.5ZM15.7559 12.3653C15.8525 10.4328 16.4933 10 17.0416 10C17.4607 10 17.6977 10.2578 17.9042 10.4829L17.9074 10.4864C18.0915 10.6868 18.2806 10.8927 18.6366 10.9903C18.6152 11.0947 18.604 11.199 18.604 11.3095C18.604 11.3801 18.6112 11.4538 18.6203 11.5223C18.0425 11.4016 17.7476 11.0814 17.5217 10.8348C17.3285 10.6241 17.2247 10.5238 17.0416 10.5238C16.6134 10.5238 16.3387 11.2041 16.2767 12.3653C16.2519 12.3645 16.2268 12.3635 16.2015 12.3625C16.1345 12.3598 16.0665 12.3571 16 12.3571C15.9505 12.3571 15.9017 12.3594 15.853 12.3616C15.8207 12.363 15.7884 12.3645 15.7559 12.3653ZM19.1249 11.3095C19.1249 10.7325 19.5918 10.2619 20.1665 10.2619C20.7412 10.2619 21.2081 10.7325 21.2081 11.3095C21.2081 11.8865 20.7412 12.3571 20.1665 12.3571C19.5918 12.3571 19.1249 11.8865 19.1249 11.3095ZM10.2711 16.8095C10.2711 14.4994 12.8406 12.881 16 12.881C19.1594 12.881 21.7289 14.4994 21.7289 16.8095C21.7289 19.1196 19.1594 21 16 21C12.8406 21 10.2711 19.1196 10.2711 16.8095ZM10.4257 13.5603C10.7014 13.283 11.0625 13.1265 11.4429 13.1265C11.6677 13.1265 11.8874 13.1889 12.0858 13.2902C11.212 13.7772 10.5346 14.4309 10.1409 15.1972C9.88456 14.6601 9.97713 14.0114 10.4257 13.5603ZM19.9142 13.2902C20.1126 13.1889 20.3323 13.1265 20.5571 13.1265C20.9375 13.1265 21.2986 13.283 21.5743 13.5603C22.0229 14.0114 22.1154 14.6601 21.8591 15.1972C21.4654 14.4309 20.788 13.7772 19.9142 13.2902ZM14.698 16.0238C14.698 15.59 14.3481 15.2381 13.9168 15.2381C13.4855 15.2381 13.1355 15.59 13.1355 16.0238C13.1355 16.4576 13.4855 16.8095 13.9168 16.8095C14.3481 16.8095 14.698 16.4576 14.698 16.0238ZM18.8645 16.0238C18.8645 15.59 18.5145 15.2381 18.0832 15.2381C17.6519 15.2381 17.302 15.59 17.302 16.0238C17.302 16.4576 17.6519 16.8095 18.0832 16.8095C18.5145 16.8095 18.8645 16.4576 18.8645 16.0238ZM13.8435 18.2254C13.8018 18.1671 13.7377 18.1303 13.6726 18.119C13.6075 18.1078 13.5363 18.1262 13.4773 18.1682C13.3593 18.251 13.338 18.4096 13.4204 18.5283C13.4509 18.5723 14.1924 19.6086 16 19.6086C17.8066 19.6086 18.5491 18.5723 18.5796 18.5283C18.662 18.4096 18.6396 18.251 18.5227 18.1682C18.4047 18.0843 18.2389 18.116 18.1565 18.2336L18.1563 18.2339C18.1422 18.253 17.5288 19.0848 16 19.0848C14.4813 19.0848 13.871 18.2643 13.8435 18.2254Z" fill="#B8B8B8"/>
</svg>
