<svg width="32" height="32" viewBox="0 0 32 32" fill="none" xmlns="http://www.w3.org/2000/svg">
<path fill-rule="evenodd" clip-rule="evenodd" d="M7.5 6C6.67157 6 6 6.67157 6 7.5V24.5C6 25.3284 6.67157 26 7.5 26H24.5C25.3284 26 26 25.3284 26 24.5V7.5C26 6.67157 25.3284 6 24.5 6H7.5ZM17.5863 11.0013C17.6579 11.0076 19.299 11.1515 20.3371 11.998C20.9011 12.525 22 15.5402 22 18.1467C22 18.1928 21.9884 18.2376 21.9657 18.2776C21.2071 19.6299 19.138 19.9839 18.6661 19.9991C18.6636 19.9996 18.661 19.9996 18.658 19.9996C18.5749 19.9996 18.4964 19.9596 18.4471 19.8909L17.9436 19.1886C19.0596 18.9151 19.648 18.4859 19.6836 18.4593C19.873 18.3176 19.9133 18.0471 19.7744 17.854C19.6351 17.6601 19.3669 17.6179 19.1766 17.7579C19.1659 17.7658 18.0773 18.5441 16 18.5441C13.9673 18.5441 12.878 17.7959 12.8253 17.7596C12.8243 17.759 12.8237 17.7586 12.8234 17.7584C12.6331 17.617 12.3657 17.6597 12.226 17.8523C12.0859 18.0458 12.127 18.318 12.3173 18.4602C12.3529 18.4867 12.9443 18.9168 14.0629 19.1903L13.5529 19.8913C13.5036 19.9596 13.4251 20 13.342 20C13.3394 20 13.3369 20 13.3339 19.9996C12.8624 19.9843 10.7933 19.6304 10.0343 18.278C10.0116 18.238 10 18.1932 10 18.1471C10 15.5402 11.0989 12.525 11.6491 12.0093C12.7017 11.1504 14.3444 11.0069 14.4139 11.0013C14.5236 10.99 14.6277 11.0543 14.6727 11.1565C14.6744 11.16 14.7687 11.4257 14.8621 11.6892C13.6514 11.9032 12.8281 12.3806 12.7844 12.4067C12.5804 12.5276 12.5114 12.7933 12.6301 13.0003C12.7489 13.2081 13.0111 13.279 13.2156 13.1586C13.2276 13.1516 14.4314 12.4563 16.0009 12.4563C17.5699 12.4563 18.7733 13.1512 18.7853 13.1586C18.853 13.1986 18.9267 13.2173 19 13.2173C19.1474 13.2173 19.291 13.1399 19.3703 13.0016C19.4899 12.7942 19.4213 12.5276 19.2164 12.4067C19.1727 12.3806 18.3524 11.9049 17.1451 11.6905C17.1684 11.6223 17.1918 11.5535 17.2138 11.4889C17.2757 11.3069 17.326 11.1591 17.3273 11.1565C17.3723 11.0548 17.4764 10.9917 17.5861 11.0013L17.5863 11.0013ZM13.4286 16.1525C13.4286 16.753 13.8121 17.2396 14.2857 17.2396C14.7593 17.2396 15.1429 16.753 15.1429 16.1525C15.1429 15.552 14.7593 15.0654 14.2857 15.0654C13.8121 15.0654 13.4286 15.552 13.4286 16.1525ZM16.8571 16.1525C16.8571 16.753 17.2407 17.2396 17.7143 17.2396C18.1879 17.2396 18.5714 16.753 18.5714 16.1525C18.5714 15.552 18.1879 15.0654 17.7143 15.0654C17.2407 15.0654 16.8571 15.552 16.8571 16.1525Z" fill="#B8B8B8"/>
</svg>
