<svg width="25" height="24" viewBox="0 0 25 24" fill="none" xmlns="http://www.w3.org/2000/svg">
<path d="M0.5 12C0.5 5.37258 5.87258 0 12.5 0C19.1274 0 24.5 5.37258 24.5 12C24.5 18.6274 19.1274 24 12.5 24C5.87258 24 0.5 18.6274 0.5 12Z" fill="#F4F4F4"/>
<path fill-rule="evenodd" clip-rule="evenodd" d="M20.1667 11.8334C20.1667 16.159 16.659 19.6667 12.3334 19.6667C8.00779 19.6667 4.5 16.159 4.5 11.8334C4.5 7.50779 8.00779 4 12.3334 4C16.659 4 20.1667 7.50779 20.1667 11.8334ZM13.9 8.01907V6.74168H12.7249V7.91669H11.9416V6.74168H10.7666V7.91669H9.5916V15.7501H10.7666V16.9251H11.9416V15.7501H12.7249V16.9251H13.9V15.6822C14.4063 15.5937 14.8202 15.4189 15.1423 15.1579C15.6198 14.7709 15.8583 14.2002 15.8583 13.4474C15.8583 13.0052 15.742 12.6336 15.5121 12.3296C15.2825 12.0233 14.9692 11.8216 14.5713 11.7206C14.9202 11.5843 15.1925 11.37 15.3883 11.0778C15.5826 10.7857 15.6805 10.4473 15.6805 10.0634C15.6805 9.36116 15.4373 8.82732 14.9492 8.46306C14.6725 8.25649 14.3229 8.1085 13.9 8.01907ZM11.1583 11.05H12.8671C13.6751 11.0363 14.0805 10.7273 14.0805 10.0924C14.0805 9.73755 13.9779 9.48179 13.7731 9.32591C13.5682 9.17003 13.2451 9.09169 12.8029 9.09169H11.1583V11.05ZM11.1583 12.225V14.5751H13.0555C13.4319 14.5751 14.2916 14.3914 14.2916 13.5532C14.2916 12.715 13.8541 12.2356 13.1166 12.225H11.1583Z" fill="#221E2A"/>
</svg>
