<svg width="25" height="24" viewBox="0 0 25 24" fill="none" xmlns="http://www.w3.org/2000/svg">
<path d="M0.5 12C0.5 5.37258 5.87258 0 12.5 0C19.1274 0 24.5 5.37258 24.5 12C24.5 18.6274 19.1274 24 12.5 24C5.87258 24 0.5 18.6274 0.5 12Z" fill="#F4F4F4"/>
<path d="M18.5 8.54102H6.77273H6.5V17.1298L12.5 20.4544L18.5 17.1298V13.8051H16.0455V15.4674L12.5 17.6839L8.95455 15.4674V11.0345H16.0455V12.9739H18.5V8.54102Z" fill="#221E2A"/>
<path fill-rule="evenodd" clip-rule="evenodd" d="M11.9545 7.98699H8.13663V3.55409L10.1649 5.37216L12.5 3L14.8353 5.37241L16.8639 3.55409V7.98699H13.0455L13.0455 7.98701H11.9545L11.9545 7.98699Z" fill="#221E2A"/>
</svg>
